<svg xmlns="http://www.w3.org/2000/svg" width="300" height="300" viewBox="0 0 300 300"><path fill="#59bdc7" d="M87 24L150 24L150 87ZM213 24L213 87L150 87ZM213 276L150 276L150 213ZM87 276L87 213L150 213ZM24 87L87 87L87 150ZM276 87L276 150L213 150ZM276 213L213 213L213 150ZM24 213L24 150L87 150Z"/><path fill="#acdee3" d="M34.5 55.5a21,21 0 1,1 42,0a21,21 0 1,1 -42,0M223.5 55.5a21,21 0 1,1 42,0a21,21 0 1,1 -42,0M223.5 244.5a21,21 0 1,1 42,0a21,21 0 1,1 -42,0M34.5 244.5a21,21 0 1,1 42,0a21,21 0 1,1 -42,0"/><path fill="#464646" d="M150 118.5L150 150L118.5 150ZM181.5 150L150 150L150 118.5ZM150 181.5L150 150L181.5 150ZM118.5 150L150 150L150 181.5Z"/></svg>